<svg width="100" height="100" viewBox="0 0 100 100" fill="none" xmlns="http://www.w3.org/2000/svg"><style>
     
         .line-file3 {animation:line-file3 2s -1.3s infinite; stroke-dasharray: 40; stroke-dashoffset: 40;}
         @keyframes line-file3 {
             20%{stroke-dashoffset: 40;}
             60%{stroke-dashoffset: 0;}
             100%{stroke-dashoffset: 0;}
         }
     
    </style><path d="M65 79H25C21.6863 79 19 76.3137 19 73V17C19 13.6863 21.6863 11 25 11H52.5L71 29.5V73C71 76.3137 68.3137 79 65 79Z" fill="rgba(36,80,96,0)" stroke-width="2px"></path><path d="M52.5 11H25C21.6863 11 19 13.6863 19 17V73C19 76.3137 21.6863 79 25 79H65C68.3137 79 71 76.3137 71 73V29.5M52.5 11V23.5C52.5 26.8137 55.1863 29.5 58.5 29.5H71M52.5 11L71 29.5" stroke="rgba(255,255,255,1)" stroke-width="2px"></path><circle cx="71" cy="75" r="19" fill="rgba(36,80,96,0)" stroke="rgba(255,255,255,1)" stroke-width="2px"></circle><g class="line-file3" style="animation-duration: 2s;"><line x1="61" y1="75.5" x2="82" y2="75.5" stroke="rgba(255,255,255,1)" stroke-width="2px"></line><line x1="71.5" y1="65" x2="71.5" y2="86" stroke="rgba(255,255,255,1)" stroke-width="2px"></line></g></svg>